<svg xmlns="http://www.w3.org/2000/svg" xmlns:xlink="http://www.w3.org/1999/xlink" width="500" zoomAndPan="magnify" viewBox="0 0 375 374.999991" height="500" preserveAspectRatio="xMidYMid meet" version="1.0"><defs><g/><clipPath id="82613b43d1"><path d="M 94.527344 203.714844 L 180.777344 203.714844 L 180.777344 288.464844 L 94.527344 288.464844 Z M 94.527344 203.714844 " clip-rule="nonzero"/></clipPath><clipPath id="7089f080f0"><path d="M 206 209.722656 L 245 209.722656 L 245 297.472656 L 206 297.472656 Z M 206 209.722656 " clip-rule="nonzero"/></clipPath><clipPath id="fb378470e6"><path d="M 244 209.722656 L 282.5 209.722656 L 282.5 297.472656 L 244 297.472656 Z M 244 209.722656 " clip-rule="nonzero"/></clipPath></defs><rect x="-37.5" width="450" fill="#ffffff" y="-37.499999" height="449.999989" fill-opacity="1"/><rect x="-37.5" width="450" fill="#ffffff" y="-37.499999" height="449.999989" fill-opacity="1"/><rect x="-37.5" width="450" fill="#ffffff" y="-37.499999" height="449.999989" fill-opacity="1"/><g clip-path="url(#82613b43d1)"><path fill="#000000" d="M 104.726562 203.820312 C 104.011719 203.832031 103.347656 204.226562 102.988281 204.890625 C 102.511719 205.777344 102.714844 206.867188 103.535156 207.480469 L 127.894531 225.609375 C 128.578125 226.085938 128.847656 226.972656 128.644531 227.792969 L 126.871094 234.539062 C 126.597656 235.628906 127.210938 236.71875 128.304688 237.0625 C 129.394531 237.332031 130.488281 236.71875 130.828125 235.628906 L 132.601562 228.882812 C 133.285156 226.429688 132.398438 223.90625 130.351562 222.40625 L 116.839844 212.253906 L 137.308594 219.476562 C 138.878906 220.023438 140.039062 221.382812 140.378906 223.019531 L 142.429688 232.632812 C 141.269531 234.335938 139.496094 235.492188 137.449219 235.832031 C 136.355469 236.039062 135.605469 237.0625 135.742188 238.21875 C 135.878906 239.242188 136.765625 239.921875 137.789062 239.921875 L 138.128906 239.921875 C 141.269531 239.378906 144.132812 237.539062 145.910156 234.878906 L 146.316406 234.265625 C 146.589844 233.789062 146.726562 233.246094 146.589844 232.699219 L 144.40625 222.269531 C 143.792969 219.273438 141.539062 216.75 138.675781 215.726562 L 105.445312 203.9375 C 105.207031 203.851562 104.960938 203.8125 104.726562 203.820312 Z M 150.28125 223.148438 C 149.351562 223.230469 148.550781 223.976562 148.433594 224.929688 C 148.296875 226.019531 149.113281 227.042969 150.207031 227.179688 C 155.121094 227.792969 159.898438 229.222656 164.332031 231.472656 L 177.570312 238.21875 C 177.84375 238.355469 178.183594 238.425781 178.523438 238.425781 C 179.273438 238.425781 179.957031 238.015625 180.367188 237.332031 C 180.777344 236.445312 180.367188 235.222656 179.414062 234.675781 L 166.175781 227.929688 C 161.328125 225.476562 156.074219 223.839844 150.683594 223.15625 C 150.550781 223.140625 150.414062 223.136719 150.28125 223.148438 Z M 122.324219 235.007812 C 121.804688 235 121.273438 235.1875 120.867188 235.5625 L 112.199219 243.875 C 111.789062 244.285156 111.585938 244.832031 111.585938 245.375 L 111.585938 251.304688 L 98.6875 262.890625 L 97.1875 264.050781 C 95.480469 265.414062 94.527344 267.390625 94.527344 269.570312 C 94.527344 271.070312 95.003906 272.570312 95.960938 273.796875 L 103.125 283.335938 C 103.535156 283.882812 104.148438 284.15625 104.761719 284.15625 L 133.488281 284.222656 L 133.558594 284.222656 C 139.5625 284.222656 145.226562 281.90625 149.457031 277.679688 C 153.6875 273.457031 156.074219 267.796875 156.074219 261.800781 C 156.007812 260.710938 155.121094 259.753906 153.960938 259.753906 C 152.800781 259.753906 151.914062 260.640625 151.914062 261.800781 C 151.914062 266.707031 150 271.339844 146.523438 274.816406 C 143.042969 278.292969 138.402344 280.203125 133.558594 280.203125 L 105.785156 280.132812 L 99.234375 271.410156 C 98.824219 270.863281 98.621094 270.25 98.621094 269.570312 C 98.621094 268.683594 99.03125 267.796875 99.710938 267.253906 L 101.214844 266.027344 L 101.28125 265.957031 L 114.929688 253.691406 C 115.339844 253.28125 115.613281 252.734375 115.613281 252.191406 L 115.613281 246.261719 L 123.664062 238.492188 C 124.480469 237.742188 124.484375 236.445312 123.730469 235.628906 C 123.355469 235.21875 122.84375 235.015625 122.324219 235.007812 Z M 125.921875 248.792969 C 125.519531 248.789062 125.113281 248.894531 124.753906 249.125 L 120.660156 251.851562 C 119.707031 252.464844 119.433594 253.757812 120.113281 254.710938 C 120.523438 255.257812 121.140625 255.597656 121.820312 255.597656 C 122.230469 255.597656 122.570312 255.460938 122.980469 255.257812 L 127.074219 252.53125 C 128.03125 251.917969 128.304688 250.625 127.621094 249.667969 C 127.238281 249.117188 126.585938 248.800781 125.921875 248.792969 Z M 153.933594 280.203125 C 153.414062 280.203125 152.902344 280.40625 152.527344 280.816406 C 151.707031 281.632812 151.707031 282.929688 152.527344 283.675781 L 156.621094 287.765625 C 157.03125 288.175781 157.578125 288.378906 158.054688 288.378906 C 158.53125 288.378906 159.078125 288.175781 159.488281 287.765625 C 160.304688 286.949219 160.304688 285.65625 159.488281 284.90625 L 155.390625 280.816406 C 154.984375 280.40625 154.453125 280.203125 153.933594 280.203125 Z M 153.933594 280.203125 " fill-opacity="1" fill-rule="nonzero"/></g><g clip-path="url(#7089f080f0)"><path fill="#000000" d="M 241.863281 284.972656 C 235.359375 279.214844 231.636719 270.972656 231.636719 262.316406 L 231.636719 260.269531 C 231.636719 260.269531 234.878906 265.703125 236.453125 265.054688 C 236.796875 264.914062 236.800781 264.296875 236.621094 263.464844 C 235.910156 260.191406 233.230469 257.695312 229.914062 257.101562 C 225.101562 256.238281 219.214844 253.484375 217.976562 244.734375 C 217.421875 240.816406 218.621094 232.945312 216.515625 230.902344 C 219.066406 232.226562 220.457031 234.269531 221.011719 238.1875 C 222.683594 250.003906 229.796875 250.378906 234.335938 250.433594 C 235.34375 250.445312 236.574219 250.316406 237.835938 250.453125 C 239.46875 250.628906 242.609375 251.828125 244.25 251.828125 L 244.25 209.734375 L 206.007812 231.671875 C 206.007812 258.828125 220.585938 283.917969 244.25 297.492188 L 244.25 287.082031 L 241.863281 284.972656 " fill-opacity="1" fill-rule="nonzero"/></g><g clip-path="url(#fb378470e6)"><path fill="#000000" d="M 244.25 209.734375 L 244.25 251.828125 C 245.890625 251.828125 249.035156 250.628906 250.667969 250.453125 C 251.929688 250.316406 253.160156 250.445312 254.167969 250.433594 C 258.707031 250.378906 265.816406 250.003906 267.492188 238.1875 C 268.046875 234.269531 269.433594 232.226562 271.988281 230.902344 C 269.878906 232.945312 271.082031 240.816406 270.527344 244.734375 C 269.289062 253.484375 263.402344 256.238281 258.589844 257.101562 C 255.273438 257.695312 252.59375 260.191406 251.882812 263.464844 C 251.703125 264.296875 251.707031 264.914062 252.050781 265.054688 C 253.621094 265.703125 256.867188 260.269531 256.867188 260.269531 L 256.867188 262.316406 C 256.867188 270.972656 253.144531 279.214844 246.636719 284.972656 L 244.25 287.082031 L 244.25 297.492188 C 267.917969 283.917969 282.496094 258.828125 282.496094 231.671875 L 244.25 209.734375 " fill-opacity="1" fill-rule="nonzero"/></g><g fill="#000000" fill-opacity="1"><g transform="translate(17.479343, 139.752632)"><g><path d="M 13.609375 -25.453125 C 16.148438 -25.453125 18.269531 -24.800781 19.96875 -23.5 C 21.664062 -22.195312 22.84375 -20.414062 23.5 -18.15625 L 20.21875 -17.375 C 19.675781 -19.050781 18.867188 -20.34375 17.796875 -21.25 C 16.722656 -22.164062 15.300781 -22.625 13.53125 -22.625 C 10.914062 -22.625 8.875 -21.757812 7.40625 -20.03125 C 5.9375 -18.3125 5.203125 -15.863281 5.203125 -12.6875 C 5.203125 -9.382812 5.921875 -6.84375 7.359375 -5.0625 C 8.796875 -3.289062 10.796875 -2.40625 13.359375 -2.40625 C 15.171875 -2.40625 16.71875 -2.945312 18 -4.03125 C 19.289062 -5.125 20.15625 -6.707031 20.59375 -8.78125 L 23.921875 -7.9375 C 23.222656 -5.300781 21.972656 -3.25 20.171875 -1.78125 C 18.378906 -0.3125 16.144531 0.421875 13.46875 0.421875 C 11.625 0.421875 10.046875 0.175781 8.734375 -0.3125 C 7.429688 -0.800781 6.328125 -1.523438 5.421875 -2.484375 C 4.160156 -3.804688 3.238281 -5.351562 2.65625 -7.125 C 2.070312 -8.90625 1.78125 -10.757812 1.78125 -12.6875 C 1.78125 -15.28125 2.273438 -17.535156 3.265625 -19.453125 C 4.253906 -21.378906 5.640625 -22.859375 7.421875 -23.890625 C 9.210938 -24.929688 11.273438 -25.453125 13.609375 -25.453125 Z M 13.609375 -25.453125 "/></g></g></g><g fill="#000000" fill-opacity="1"><g transform="translate(42.726724, 139.752632)"><g><path d="M 23.390625 0 L 19.625 0 L 16.6875 -7.625 L 6.21875 -7.625 L 3.5 0 L -0.03125 0 L 9.578125 -25.03125 L 13.140625 -25.03125 Z M 9.9375 -17.625 L 7.203125 -10.28125 L 15.671875 -10.28125 L 12.59375 -18.53125 C 12.21875 -19.507812 11.785156 -20.804688 11.296875 -22.421875 C 11.296875 -22.296875 11.15625 -21.703125 10.875 -20.640625 C 10.59375 -19.585938 10.28125 -18.582031 9.9375 -17.625 Z M 9.9375 -17.625 "/></g></g></g><g fill="#000000" fill-opacity="1"><g transform="translate(66.050823, 139.752632)"><g><path d="M 19.296875 -5.390625 L 19.296875 -25.03125 L 22.484375 -25.03125 L 22.484375 0 L 19.09375 0 L 5.9375 -19.65625 L 5.9375 0 L 2.765625 0 L 2.765625 -25.03125 L 6.15625 -25.03125 Z M 19.296875 -5.390625 "/></g></g></g><g fill="#000000" fill-opacity="1"><g transform="translate(91.298204, 139.752632)"><g/></g></g><g fill="#000000" fill-opacity="1"><g transform="translate(101.019491, 139.752632)"><g><path d="M 4.234375 -25.03125 L 6.125 -22.03125 C 6.65625 -21.164062 7.304688 -20.1875 8.078125 -19.09375 C 9.753906 -16.570312 10.953125 -14.625 11.671875 -13.25 C 12.378906 -14.46875 13.289062 -15.9375 14.40625 -17.65625 L 19.265625 -25.03125 L 23.109375 -25.03125 L 13.140625 -10.59375 L 13.140625 0 L 9.828125 0 L 9.828125 -10.59375 L 0.171875 -25.03125 Z M 4.234375 -25.03125 "/></g></g></g><g fill="#000000" fill-opacity="1"><g transform="translate(124.34359, 139.752632)"><g><path d="M 13.1875 -25.453125 C 15.675781 -25.453125 17.859375 -24.914062 19.734375 -23.84375 C 21.617188 -22.769531 23.066406 -21.253906 24.078125 -19.296875 C 25.085938 -17.335938 25.59375 -15.066406 25.59375 -12.484375 C 25.59375 -9.921875 25.070312 -7.660156 24.03125 -5.703125 C 23 -3.742188 21.582031 -2.234375 19.78125 -1.171875 C 17.988281 -0.109375 15.988281 0.421875 13.78125 0.421875 C 11.351562 0.421875 9.222656 -0.132812 7.390625 -1.25 C 5.566406 -2.375 4.148438 -3.894531 3.140625 -5.8125 C 2.140625 -7.738281 1.640625 -9.867188 1.640625 -12.203125 C 1.640625 -14.859375 2.140625 -17.1875 3.140625 -19.1875 C 4.148438 -21.195312 5.523438 -22.742188 7.265625 -23.828125 C 9.015625 -24.910156 10.988281 -25.453125 13.1875 -25.453125 Z M 5.078125 -12.140625 C 5.078125 -10.203125 5.4375 -8.5 6.15625 -7.03125 C 6.875 -5.5625 7.878906 -4.421875 9.171875 -3.609375 C 10.472656 -2.804688 11.953125 -2.40625 13.609375 -2.40625 C 15.304688 -2.40625 16.800781 -2.804688 18.09375 -3.609375 C 19.382812 -4.421875 20.382812 -5.582031 21.09375 -7.09375 C 21.8125 -8.613281 22.171875 -10.410156 22.171875 -12.484375 C 22.171875 -14.535156 21.8125 -16.328125 21.09375 -17.859375 C 20.382812 -19.398438 19.390625 -20.578125 18.109375 -21.390625 C 16.828125 -22.210938 15.375 -22.625 13.75 -22.625 C 10.988281 -22.625 8.851562 -21.703125 7.34375 -19.859375 C 5.832031 -18.015625 5.078125 -15.441406 5.078125 -12.140625 Z M 5.078125 -12.140625 "/></g></g></g><g fill="#000000" fill-opacity="1"><g transform="translate(151.549215, 139.752632)"><g><path d="M 6.078125 -10.25 C 6.078125 -8.101562 6.3125 -6.550781 6.78125 -5.59375 C 7.226562 -4.6875 7.914062 -3.953125 8.84375 -3.390625 C 9.78125 -2.828125 10.984375 -2.546875 12.453125 -2.546875 C 14.472656 -2.546875 15.972656 -2.945312 16.953125 -3.75 C 17.929688 -4.5625 18.535156 -5.484375 18.765625 -6.515625 C 19.003906 -7.554688 19.125 -8.785156 19.125 -10.203125 L 19.125 -25.03125 L 22.453125 -25.03125 L 22.453125 -10.28125 C 22.453125 -9.019531 22.375 -7.800781 22.21875 -6.625 C 22.070312 -5.445312 21.632812 -4.332031 20.90625 -3.28125 C 20.113281 -2.144531 19.066406 -1.242188 17.765625 -0.578125 C 16.460938 0.0859375 14.75 0.421875 12.625 0.421875 C 10.570312 0.421875 8.910156 0.117188 7.640625 -0.484375 C 6.367188 -1.097656 5.3125 -1.9375 4.46875 -3 C 3.726562 -3.9375 3.257812 -5.035156 3.0625 -6.296875 C 2.863281 -7.554688 2.765625 -8.875 2.765625 -10.25 L 2.765625 -25.03125 L 6.078125 -25.03125 Z M 6.078125 -10.25 "/></g></g></g><g fill="#000000" fill-opacity="1"><g transform="translate(176.796597, 139.752632)"><g/></g></g><g fill="#000000" fill-opacity="1"><g transform="translate(186.517883, 139.752632)"><g><path d="M 17.828125 -23.53125 C 18.765625 -22.832031 19.410156 -22.046875 19.765625 -21.171875 C 20.128906 -20.296875 20.3125 -19.519531 20.3125 -18.84375 C 20.3125 -16.332031 19.132812 -14.492188 16.78125 -13.328125 C 18.394531 -12.835938 19.578125 -12.054688 20.328125 -10.984375 C 21.085938 -9.910156 21.46875 -8.628906 21.46875 -7.140625 C 21.46875 -5.992188 21.175781 -4.832031 20.59375 -3.65625 C 20.007812 -2.476562 18.992188 -1.550781 17.546875 -0.875 C 16.316406 -0.289062 14.601562 0 12.40625 0 L 2.59375 0 L 2.59375 -25.03125 L 12.203125 -25.03125 C 13.597656 -25.03125 14.710938 -24.90625 15.546875 -24.65625 C 16.390625 -24.414062 17.148438 -24.039062 17.828125 -23.53125 Z M 17.03125 -18.25 C 17.03125 -19.769531 16.546875 -20.789062 15.578125 -21.3125 C 14.609375 -21.832031 13.15625 -22.09375 11.21875 -22.09375 L 5.90625 -22.09375 L 5.90625 -14.515625 L 11.546875 -14.515625 C 13.429688 -14.515625 14.816406 -14.8125 15.703125 -15.40625 C 16.585938 -16 17.03125 -16.945312 17.03125 -18.25 Z M 15.84375 -3.53125 C 16.632812 -3.925781 17.195312 -4.460938 17.53125 -5.140625 C 17.875 -5.816406 18.046875 -6.515625 18.046875 -7.234375 C 18.046875 -8.210938 17.800781 -9.039062 17.3125 -9.71875 C 16.820312 -10.394531 16.125 -10.882812 15.21875 -11.1875 C 14.46875 -11.445312 13.378906 -11.578125 11.953125 -11.578125 L 5.90625 -11.578125 L 5.90625 -2.9375 L 12.59375 -2.9375 C 13.363281 -2.9375 13.992188 -2.984375 14.484375 -3.078125 C 14.972656 -3.171875 15.425781 -3.320312 15.84375 -3.53125 Z M 15.84375 -3.53125 "/></g></g></g><g fill="#000000" fill-opacity="1"><g transform="translate(209.84197, 139.752632)"><g><path d="M 20.875 -22.09375 L 6.078125 -22.09375 L 6.078125 -14.40625 L 19.9375 -14.40625 L 19.9375 -11.46875 L 6.078125 -11.46875 L 6.078125 -2.9375 L 21.4375 -2.9375 L 21.4375 0 L 2.765625 0 L 2.765625 -25.03125 L 20.875 -25.03125 Z M 20.875 -22.09375 "/></g></g></g><g fill="#000000" fill-opacity="1"><g transform="translate(233.16608, 139.752632)"><g><path d="M 23.390625 0 L 19.625 0 L 16.6875 -7.625 L 6.21875 -7.625 L 3.5 0 L -0.03125 0 L 9.578125 -25.03125 L 13.140625 -25.03125 Z M 9.9375 -17.625 L 7.203125 -10.28125 L 15.671875 -10.28125 L 12.59375 -18.53125 C 12.21875 -19.507812 11.785156 -20.804688 11.296875 -22.421875 C 11.296875 -22.296875 11.15625 -21.703125 10.875 -20.640625 C 10.59375 -19.585938 10.28125 -18.582031 9.9375 -17.625 Z M 9.9375 -17.625 "/></g></g></g><g fill="#000000" fill-opacity="1"><g transform="translate(256.490191, 139.752632)"><g><path d="M 20.625 -22.09375 L 12.34375 -22.09375 L 12.34375 0 L 9.015625 0 L 9.015625 -22.09375 L 0.765625 -22.09375 L 0.765625 -25.03125 L 20.625 -25.03125 Z M 20.625 -22.09375 "/></g></g></g><g fill="#000000" fill-opacity="1"><g transform="translate(277.856034, 139.752632)"><g/></g></g><g fill="#000000" fill-opacity="1"><g transform="translate(287.577332, 139.752632)"><g><path d="M 20.625 -22.09375 L 12.34375 -22.09375 L 12.34375 0 L 9.015625 0 L 9.015625 -22.09375 L 0.765625 -22.09375 L 0.765625 -25.03125 L 20.625 -25.03125 Z M 20.625 -22.09375 "/></g></g></g><g fill="#000000" fill-opacity="1"><g transform="translate(308.943175, 139.752632)"><g><path d="M 6.125 -14.75 L 19.125 -14.75 L 19.125 -25.03125 L 22.453125 -25.03125 L 22.453125 0 L 19.125 0 L 19.125 -11.8125 L 6.125 -11.8125 L 6.125 0 L 2.796875 0 L 2.796875 -25.03125 L 6.125 -25.03125 Z M 6.125 -14.75 "/></g></g></g><g fill="#000000" fill-opacity="1"><g transform="translate(334.190556, 139.752632)"><g><path d="M 20.875 -22.09375 L 6.078125 -22.09375 L 6.078125 -14.40625 L 19.9375 -14.40625 L 19.9375 -11.46875 L 6.078125 -11.46875 L 6.078125 -2.9375 L 21.4375 -2.9375 L 21.4375 0 L 2.765625 0 L 2.765625 -25.03125 L 20.875 -25.03125 Z M 20.875 -22.09375 "/></g></g></g><g fill="#000000" fill-opacity="1"><g transform="translate(104.912931, 174.252629)"><g><path d="M 13.78125 -6.671875 C 13.9375 -6.210938 14.257812 -5.191406 14.75 -3.609375 C 15.007812 -4.421875 15.429688 -5.6875 16.015625 -7.40625 L 22.09375 -25.03125 L 26.546875 -25.03125 L 26.546875 0 L 23.359375 0 L 23.359375 -20.953125 L 16.078125 0 L 13.078125 0 L 5.84375 -21.296875 L 5.84375 0 L 2.65625 0 L 2.65625 -25.03125 L 7.65625 -25.03125 Z M 13.78125 -6.671875 "/></g></g></g><g fill="#000000" fill-opacity="1"><g transform="translate(134.041839, 174.252629)"><g><path d="M 23.390625 0 L 19.625 0 L 16.6875 -7.625 L 6.21875 -7.625 L 3.5 0 L -0.03125 0 L 9.578125 -25.03125 L 13.140625 -25.03125 Z M 9.9375 -17.625 L 7.203125 -10.28125 L 15.671875 -10.28125 L 12.59375 -18.53125 C 12.21875 -19.507812 11.785156 -20.804688 11.296875 -22.421875 C 11.296875 -22.296875 11.15625 -21.703125 10.875 -20.640625 C 10.59375 -19.585938 10.28125 -18.582031 9.9375 -17.625 Z M 9.9375 -17.625 "/></g></g></g><g fill="#000000" fill-opacity="1"><g transform="translate(157.365939, 174.252629)"><g><path d="M 20.359375 -23.53125 C 21.210938 -22.851562 21.835938 -22.039062 22.234375 -21.09375 C 22.628906 -20.15625 22.828125 -19.1875 22.828125 -18.1875 C 22.828125 -16.363281 22.242188 -14.863281 21.078125 -13.6875 C 19.921875 -12.507812 18.148438 -11.75 15.765625 -11.40625 C 16.679688 -10.976562 17.5 -10.410156 18.21875 -9.703125 C 18.9375 -8.992188 19.707031 -8.007812 20.53125 -6.75 L 24.859375 0 L 20.703125 0 L 17.484375 -5.03125 C 16.367188 -6.78125 15.476562 -8.054688 14.8125 -8.859375 C 14.144531 -9.671875 13.460938 -10.242188 12.765625 -10.578125 C 12.066406 -10.910156 11.179688 -11.078125 10.109375 -11.078125 L 6.125 -11.078125 L 6.125 0 L 2.796875 0 L 2.796875 -25.03125 L 14.296875 -25.03125 C 15.765625 -25.03125 16.957031 -24.921875 17.875 -24.703125 C 18.800781 -24.484375 19.628906 -24.09375 20.359375 -23.53125 Z M 17.9375 -15.109375 C 18.445312 -15.503906 18.816406 -15.972656 19.046875 -16.515625 C 19.285156 -17.066406 19.40625 -17.625 19.40625 -18.1875 C 19.40625 -19.65625 18.878906 -20.703125 17.828125 -21.328125 C 16.785156 -21.960938 15.5625 -22.28125 14.15625 -22.28125 L 6.125 -22.28125 L 6.125 -14.015625 L 13.609375 -14.015625 C 14.765625 -14.015625 15.648438 -14.101562 16.265625 -14.28125 C 16.890625 -14.457031 17.445312 -14.734375 17.9375 -15.109375 Z M 17.9375 -15.109375 "/></g></g></g><g fill="#000000" fill-opacity="1"><g transform="translate(182.61332, 174.252629)"><g><path d="M 5.875 -12.625 L 18.28125 -25.03125 L 22.796875 -25.03125 L 12.28125 -14.890625 L 23.25 0 L 18.890625 0 L 9.96875 -12.65625 L 5.875 -8.671875 L 5.875 0 L 2.546875 0 L 2.546875 -25.03125 L 5.875 -25.03125 Z M 5.875 -12.625 "/></g></g></g><g fill="#000000" fill-opacity="1"><g transform="translate(205.937419, 174.252629)"><g><path d="M 20.875 -22.09375 L 6.078125 -22.09375 L 6.078125 -14.40625 L 19.9375 -14.40625 L 19.9375 -11.46875 L 6.078125 -11.46875 L 6.078125 -2.9375 L 21.4375 -2.9375 L 21.4375 0 L 2.765625 0 L 2.765625 -25.03125 L 20.875 -25.03125 Z M 20.875 -22.09375 "/></g></g></g><g fill="#000000" fill-opacity="1"><g transform="translate(229.261518, 174.252629)"><g><path d="M 20.625 -22.09375 L 12.34375 -22.09375 L 12.34375 0 L 9.015625 0 L 9.015625 -22.09375 L 0.765625 -22.09375 L 0.765625 -25.03125 L 20.625 -25.03125 Z M 20.625 -22.09375 "/></g></g></g><g fill="#000000" fill-opacity="1"><g transform="translate(250.627373, 174.252629)"><g><path d="M 9.71875 -25.453125 C 11.28125 -25.453125 12.671875 -25.15625 13.890625 -24.5625 C 15.117188 -23.96875 16.070312 -23.148438 16.75 -22.109375 C 17.425781 -21.078125 17.765625 -19.921875 17.765625 -18.640625 C 17.765625 -17.703125 17.597656 -16.875 17.265625 -16.15625 C 16.941406 -15.4375 16.519531 -14.785156 16 -14.203125 C 15.476562 -13.617188 14.710938 -12.867188 13.703125 -11.953125 L 12.765625 -11.125 C 12.085938 -10.488281 11.644531 -9.820312 11.4375 -9.125 C 11.226562 -8.425781 11.109375 -7.519531 11.078125 -6.40625 L 11.078125 -6.15625 L 8.140625 -6.15625 L 8.109375 -7.0625 C 8.109375 -8.414062 8.347656 -9.609375 8.828125 -10.640625 C 9.304688 -11.679688 10.09375 -12.65625 11.1875 -13.5625 C 12.46875 -14.632812 13.359375 -15.507812 13.859375 -16.1875 C 14.359375 -16.863281 14.609375 -17.632812 14.609375 -18.5 C 14.609375 -19.25 14.398438 -19.96875 13.984375 -20.65625 C 13.566406 -21.34375 12.976562 -21.894531 12.21875 -22.3125 C 11.457031 -22.726562 10.613281 -22.9375 9.6875 -22.9375 C 8.257812 -22.9375 7.140625 -22.472656 6.328125 -21.546875 C 5.515625 -20.628906 4.988281 -19.40625 4.75 -17.875 L 1.609375 -18.21875 C 1.910156 -20.550781 2.765625 -22.335938 4.171875 -23.578125 C 5.585938 -24.828125 7.4375 -25.453125 9.71875 -25.453125 Z M 11.4375 0 L 7.9375 0 L 7.9375 -3.5 L 11.4375 -3.5 Z M 11.4375 0 "/></g></g></g></svg>